# xmcd
#
# Track frame offsets:
#	150
#	15959
#	35081
#	51496
#	71261
#	90609
#	105733
#	123033
#	136101
#	155319
#
# Disc length: 2280 seconds
#
# Revision: 1
# Processed by: cddbd v1.5.2PL0 Copyright (c) Steve Scherf et al.
# Submitted via: audiograbber 1.83.01
#
DISCID=7508e60a
DTITLE=Heidi Newfield - What Am I Waiting For
DYEAR=2008
DGENRE=Country
TTITLE0=Can't Let Go
TTITLE1=When Tears Fall Down
TTITLE2=Johnny And June
TTITLE3=What Am I Waiting For
TTITLE4=Love Her And Lose Me
TTITLE5=Cry Cry ('till The Sun Shines)
TTITLE6=Wreck You
TTITLE7=Nothin' Burns Like A Memory
TTITLE8=All I Wanna Do
TTITLE9=Knocked Up
EXTD=
EXTT0=
EXTT1=
EXTT2=
EXTT3=
EXTT4=
EXTT5=
EXTT6=
EXTT7=
EXTT8=
EXTT9=
PLAYORDER=
